<?xml version="1.0" encoding="UTF-8"?>
<svg version="1.1" xmlns="http://www.w3.org/2000/svg" width="1342" height="861">
<path d="M0 0 C442.86 0 885.72 0 1342 0 C1342 284.13 1342 568.26 1342 861 C899.14 861 456.28 861 0 861 C0 576.87 0 292.74 0 0 Z " fill="#948C8B" transform="translate(0,0)"/>
<path d="M0 0 C2.78341975 0.01295943 5.4410828 0.14940136 8.20703125 0.390625 C9.03643723 0.45471054 9.8658432 0.51879608 10.72038269 0.58482361 C13.41870046 0.79612296 16.11548079 1.02277369 18.8125 1.25 C20.64642329 1.39700425 22.48040793 1.54324524 24.31445312 1.6887207 C36.55463965 2.66974498 48.7842128 3.75068602 61 5 C65.10128126 17.74371798 68.74269121 30.59866142 72.3125 43.5 C72.8676038 45.49876312 73.42294091 47.49746147 73.97851562 49.49609375 C75.32169349 54.32998873 76.66173811 59.16474184 78 64 C74.63458003 66.78380832 71.22252027 69.20005438 67.4921875 71.46875 C66.43161133 72.117229 65.37103516 72.76570801 64.27832031 73.43383789 C63.15522461 74.11567139 62.03212891 74.79750488 60.875 75.5 C58.53258459 76.92370599 56.19139676 78.34939953 53.8515625 79.77734375 C53.26918823 80.13259628 52.68681396 80.48784882 52.08679199 80.85386658 C48.43794232 83.08984489 44.84169961 85.39175476 41.2734375 87.75390625 C40.41766113 88.3159375 39.56188477 88.87796875 38.68017578 89.45703125 C37.09892536 90.50166685 35.5263842 91.55964771 33.96435547 92.6328125 C33.25939941 93.09558594 32.55444336 93.55835938 31.828125 94.03515625 C31.2290332 94.4412915 30.62994141 94.84742676 30.01269531 95.26586914 C24.68197339 97.21025061 19.15069496 93.98364197 14.30078125 91.796875 C13.58391647 91.47720764 12.8670517 91.15754028 12.12846375 90.82818604 C10.62161751 90.15275527 9.11649663 89.47346347 7.61303711 88.79052734 C5.31599976 87.75158293 3.00923004 86.7368365 0.70117188 85.72265625 C-0.76628188 85.06135155 -2.23310186 84.39863829 -3.69921875 83.734375 C-4.38674728 83.43521179 -5.07427582 83.13604858 -5.78263855 82.82781982 C-9.98531699 80.88276438 -12.05901863 79.20865852 -14 75 C-14.3285498 74.33887207 -14.65709961 73.67774414 -14.99560547 72.99658203 C-21.52049387 58.1081392 -28.29627756 39.56882962 -27 23 C-24.71280844 17.46382926 -20.08656552 14.78492383 -14.96679688 12.09570312 C-11.88836251 10.38070642 -9.41924571 8.17312064 -6.75 5.875 C-5.87859375 5.17117188 -5.0071875 4.46734375 -4.109375 3.7421875 C-1.95895522 2.02222481 -1.95895522 2.02222481 0 0 Z " fill="#E81311" transform="translate(866,533)"/>
<path d="M0 0 C14.19 0 28.38 0 43 0 C43.495 1.98 43.495 1.98 44 4 C45.65 4 47.3 4 49 4 C50.17460695 8.41459421 51.33831024 12.83199067 52.5 17.25 C52.83386719 18.50425781 53.16773438 19.75851563 53.51171875 21.05078125 C53.82753906 22.25605469 54.14335937 23.46132812 54.46875 24.703125 C54.76201172 25.81333008 55.05527344 26.92353516 55.35742188 28.06738281 C56 31 56 31 56 35 C55.01 35.33 54.02 35.66 53 36 C53 36.99 53 37.98 53 39 C50.36 39 47.72 39 45 39 C45.2165625 39.62648437 45.433125 40.25296875 45.65625 40.8984375 C45.9346875 41.71570313 46.213125 42.53296875 46.5 43.375 C46.7784375 44.18710938 47.056875 44.99921875 47.34375 45.8359375 C48 48 48 48 48 50 C49.65 50.33 51.3 50.66 53 51 C53 51.66 53 52.32 53 53 C61.25 53 69.5 53 78 53 C78.99 56.96 78.99 56.96 80 61 C70.1 61.495 70.1 61.495 60 62 C60 62.66 60 63.32 60 64 C58.68 64 57.36 64 56 64 C56.2165625 64.67546875 56.433125 65.3509375 56.65625 66.046875 C56.9346875 66.93890625 57.213125 67.8309375 57.5 68.75 C57.7784375 69.63171875 58.056875 70.5134375 58.34375 71.421875 C59 74 59 74 59 78 C60.65 78 62.3 78 64 78 C64.33 78.99 64.66 79.98 65 81 C67.01508358 81.73323796 67.01508358 81.73323796 69 82 C69 82.99 69 83.98 69 85 C70.65 85 72.3 85 74 85 C74 85.99 74 86.98 74 88 C75.65 88.33 77.3 88.66 79 89 C79.99 92.96 79.99 92.96 81 97 C84.96 97.33 88.92 97.66 93 98 C93 99.32 93 100.64 93 102 C85.41 102 77.82 102 70 102 C69.08854167 98.64713542 68.17708333 95.29427083 67.265625 91.94140625 C66.33791025 88.85270952 66.33791025 88.85270952 63.859375 88.08984375 C62.93898438 88.04537109 62.93898438 88.04537109 62 88 C62 87.01 62 86.02 62 85 C60.35 85 58.7 85 57 85 C57 84.01 57 83.02 57 82 C49.08 82 41.16 82 33 82 C33 82.99 33 83.98 33 85 C32.01 85 31.02 85 30 85 C30 85.99 30 86.98 30 88 C29.01 88 28.02 88 27 88 C28.32 92.62 29.64 97.24 31 102 C23.08 102 15.16 102 7 102 C6.67 100.68 6.34 99.36 6 98 C11.445 97.505 11.445 97.505 17 97 C16.34 94.03 15.68 91.06 15 88 C15.99 88 16.98 88 18 88 C18 87.01 18 86.02 18 85 C18.99 85 19.98 85 21 85 C21 84.01 21 83.02 21 82 C21.99 82 22.98 82 24 82 C24 80.68 24 79.36 24 78 C24.99 78 25.98 78 27 78 C26.43746937 75.84861957 25.84932179 73.70392286 25.25 71.5625 C24.76273437 69.77005859 24.76273437 69.77005859 24.265625 67.94140625 C23.84796875 66.97074219 23.4303125 66.00007813 23 65 C20.98832774 64.14206257 20.98832774 64.14206257 19 64 C18.67 63.34 18.34 62.68 18 62 C11.4 61.67 4.8 61.34 -2 61 C-2.99 58.36 -3.98 55.72 -5 53 C2.92 52.67 10.84 52.34 19 52 C19 51.34 19 50.68 19 50 C20.32 50 21.64 50 23 50 C22.01 46.37 21.02 42.74 20 39 C17.03 39 14.06 39 11 39 C10.505 37.515 10.505 37.515 10 36 C9.35756348 35.86263428 8.71512695 35.72526855 8.05322266 35.58374023 C6 35 6 35 4.93505859 33.11743164 C4.54568115 31.90108032 4.54568115 31.90108032 4.1484375 30.66015625 C3.85453125 29.76103516 3.560625 28.86191406 3.2578125 27.93554688 C2.96648437 26.98744141 2.67515625 26.03933594 2.375 25.0625 C2.0759375 24.14919922 1.776875 23.23589844 1.46875 22.29492188 C-0.46056346 16.26368312 -1.89498491 10.23326657 -3 4 C-2.01 3.67 -1.02 3.34 0 3 C0 2.01 0 1.02 0 0 Z " fill="#CFCFCF" transform="translate(372,199)"/>
<path d="M0 0 C11.55 0 23.1 0 35 0 C35 1.32 35 2.64 35 4 C35.99 4 36.98 4 38 4 C37.59602983 7.95153511 37.18697915 11.90250767 36.77319336 15.85302734 C36.63311939 17.19728302 36.49443957 18.54168473 36.35717773 19.88623047 C36.15974828 21.81776053 35.95690385 23.74873469 35.75390625 25.6796875 C35.63345947 26.84226074 35.5130127 28.00483398 35.38891602 29.20263672 C35 32 35 32 34 34 C33.01 34 32.02 34 31 34 C31 34.99 31 35.98 31 37 C29.02 37 27.04 37 25 37 C25 37.99 25 38.98 25 40 C25.99 40 26.98 40 28 40 C28 40.99 28 41.98 28 43 C30.64680904 42.88660796 33.29177518 42.75987127 35.9375 42.625 C36.69224609 42.5940625 37.44699219 42.563125 38.22460938 42.53125 C40.15507395 42.4273685 42.07942081 42.22104386 44 42 C44.495 41.01 44.495 41.01 45 40 C48.63 40 52.26 40 56 40 C56 40.99 56 41.98 56 43 C56.66 43 57.32 43 58 43 C58.08159574 47.16138263 57.98248524 50.9472484 57 55 C56.01 55 55.02 55 54 55 C54 55.99 54 56.98 54 58 C50.04 58 46.08 58 42 58 C42.33 57.01 42.66 56.02 43 55 C38.38 55 33.76 55 29 55 C29 55.99 29 56.98 29 58 C28.01 58 27.02 58 26 58 C25.67 59.98 25.34 61.96 25 64 C25.99 64 26.98 64 28 64 C28 64.99 28 65.98 28 67 C28.66 67 29.32 67 30 67 C30 67.66 30 68.32 30 69 C30.99 69 31.98 69 33 69 C33 69.66 33 70.32 33 71 C33.66 71.33 34.32 71.66 35 72 C34.67 74.97 34.34 77.94 34 81 C36.64 81 39.28 81 42 81 C41.67 83.64 41.34 86.28 41 89 C34.07 89 27.14 89 20 89 C20 80 20 80 21 78 C20.01 78 19.02 78 18 78 C18 77.01 18 76.02 18 75 C17.34 75 16.68 75 16 75 C16 74.01 16 73.02 16 72 C12.37 72 8.74 72 5 72 C5 72.99 5 73.98 5 75 C4.01 75 3.02 75 2 75 C2 75.99 2 76.98 2 78 C1.01 78 0.02 78 -1 78 C-1.33 81.63 -1.66 85.26 -2 89 C-9.26 89 -16.52 89 -24 89 C-23.67 86.36 -23.34 83.72 -23 81 C-20.36 81 -17.72 81 -15 81 C-14.67 78.03 -14.34 75.06 -14 72 C-13.01 72 -12.02 72 -11 72 C-11 71.01 -11 70.02 -11 69 C-10.01 69 -9.02 69 -8 69 C-8 68.34 -8 67.68 -8 67 C-7.01 67 -6.02 67 -5 67 C-5 66.01 -5 65.02 -5 64 C-4.01 64 -3.02 64 -2 64 C-2 62.02 -2 60.04 -2 58 C-2.99 58 -3.98 58 -5 58 C-5 57.01 -5 56.02 -5 55 C-7.1464753 55.11344376 -9.29220592 55.24106345 -11.4375 55.375 C-13.22994141 55.47941406 -13.22994141 55.47941406 -15.05859375 55.5859375 C-16.51458984 55.79089844 -16.51458984 55.79089844 -18 56 C-18.33 56.66 -18.66 57.32 -19 58 C-22.63 58 -26.26 58 -30 58 C-30 57.01 -30 56.02 -30 55 C-30.66 55 -31.32 55 -32 55 C-32 51.04 -32 47.08 -32 43 C-31.01 43 -30.02 43 -29 43 C-29 42.01 -29 41.02 -29 40 C-25.04 40 -21.08 40 -17 40 C-17 40.99 -17 41.98 -17 43 C-14.35319096 42.88660796 -11.70822482 42.75987127 -9.0625 42.625 C-8.30775391 42.5940625 -7.55300781 42.563125 -6.77539062 42.53125 C-4.84492605 42.4273685 -2.92057919 42.22104386 -1 42 C-0.67 41.34 -0.34 40.68 0 40 C0.99 40 1.98 40 3 40 C3 39.01 3 38.02 3 37 C1.02 37 -0.96 37 -3 37 C-3 36.01 -3 35.02 -3 34 C-3.66 34 -4.32 34 -5 34 C-5.40820882 23.90817093 -4.16108676 14.00400644 -3 4 C-2.01 4 -1.02 4 0 4 C0 2.68 0 1.36 0 0 Z " fill="#9E3030" transform="translate(784,19)"/>
<path d="M0 0 C2.88749598 0.02528222 5.65371024 0.17313328 8.5234375 0.42578125 C9.80826523 0.52635078 9.80826523 0.52635078 11.11904907 0.62895203 C13.87194021 0.84680998 16.62335585 1.07946878 19.375 1.3125 C21.19132829 1.45865438 23.00773419 1.60384766 24.82421875 1.74804688 C29.13059552 2.09201271 33.43563735 2.4502243 37.74047852 2.81283569 C39.75932683 2.98006417 41.77903326 3.13685751 43.79882812 3.29223633 C44.85263672 3.37368896 45.90644531 3.4551416 46.9921875 3.5390625 C47.86472168 3.60432129 48.73725586 3.66958008 49.63623047 3.73681641 C53.21205592 4.13495107 56.54663864 5.00383807 60 6 C60.31776602 10.16051791 59.55074594 12.32264046 57.3125 15.8125 C56.76335937 16.67875 56.21421875 17.545 55.6484375 18.4375 C55.10445312 19.283125 54.56046875 20.12875 54 21 C53.33871094 22.11375 53.33871094 22.11375 52.6640625 23.25 C50.18031577 27.42649132 47.50109528 30.5910388 44 34 C42.24542624 36.77807512 40.6646804 39.61278415 39.08691406 42.49609375 C35.53208966 47.39594357 30.80625379 47.77024513 25.109375 48.6875 C24.0501886 48.87973145 22.9910022 49.07196289 21.89971924 49.27001953 C19.66296419 49.66999118 17.42362984 50.05576587 15.18212891 50.42822266 C11.7698487 50.9966933 8.36792581 51.60953307 4.96484375 52.23046875 C2.78431845 52.61462392 0.60334019 52.99621858 -1.578125 53.375 C-2.58780334 53.55506592 -3.59748169 53.73513184 -4.63775635 53.9206543 C-10.73525944 54.91773508 -15.8915997 54.97053768 -22 54 C-28.76965702 27.61046962 -28.76965702 27.61046962 -26.04003906 20.49902344 C-23.11903359 16.61426463 -19.21882491 14.32913253 -14.96679688 12.09570312 C-11.88836251 10.38070642 -9.41924571 8.17312064 -6.75 5.875 C-5.87859375 5.17117188 -5.0071875 4.46734375 -4.109375 3.7421875 C-1.95895522 2.02222481 -1.95895522 2.02222481 0 0 Z " fill="#E0111A" transform="translate(866,533)"/>
<path d="M0 0 C17.49 0 34.98 0 53 0 C53 1.32 53 2.64 53 4 C54.65 4 56.3 4 58 4 C61.70673285 16.91835833 64.97281468 29.90620679 68 43 C66.68 43 65.36 43 64 43 C64 43.99 64 44.98 64 46 C61.36 46 58.72 46 56 46 C56.495 47.98 56.495 47.98 57 50 C58.65 50.33 60.3 50.66 62 51 C62 51.99 62 52.98 62 54 C70.25 54 78.5 54 87 54 C86.505 52.02 86.505 52.02 86 50 C91.61 50 97.22 50 103 50 C103.33 50.99 103.66 51.98 104 53 C105.32 53.33 106.64 53.66 108 54 C108.99 58.62 109.98 63.24 111 68 C109.68 68 108.36 68 107 68 C107.33 69.32 107.66 70.64 108 72 C102.39 72 96.78 72 91 72 C91 70.68 91 69.36 91 68 C84.07 68 77.14 68 70 68 C70.33 69.32 70.66 70.64 71 72 C69.68 72 68.36 72 67 72 C67.6954344 75.00384054 67.6954344 75.00384054 69 78 C71.00572641 78.81446109 71.00572641 78.81446109 73 79 C73.33 79.66 73.66 80.32 74 81 C74.66 81.144375 75.32 81.28875 76 81.4375 C76.99 81.7159375 76.99 81.7159375 78 82 C78.33 82.99 78.66 83.98 79 85 C81.01508358 85.73323796 81.01508358 85.73323796 83 86 C83 86.99 83 87.98 83 89 C84.65 89 86.3 89 88 89 C88.99 93.455 88.99 93.455 90 98 C93.96 98.33 97.92 98.66 102 99 C102.99 103.95 102.99 103.95 104 109 C93.77 109 83.54 109 73 109 C71.66666667 105 70.33333333 101 69 97 C68.34 96.835 67.68 96.67 67 96.5 C66.34 96.335 65.68 96.17 65 96 C64.67 95.01 64.34 94.02 64 93 C61.98491642 92.26676204 61.98491642 92.26676204 60 92 C60 91.01 60 90.02 60 89 C54.72 89 49.44 89 44 89 C44 89.99 44 90.98 44 92 C43.01 92 42.02 92 41 92 C41 93.32 41 94.64 41 96 C40.01 96 39.02 96 38 96 C38.2165625 96.60328125 38.433125 97.2065625 38.65625 97.828125 C38.9346875 98.62734375 39.213125 99.4265625 39.5 100.25 C39.7784375 101.03890625 40.056875 101.8278125 40.34375 102.640625 C41 105 41 105 41 109 C30.77 109 20.54 109 10 109 C9.01 105.7 8.02 102.4 7 99 C10.63 98.67 14.26 98.34 18 98 C17.34 95.03 16.68 92.06 16 89 C16.99 89 17.98 89 19 89 C19 88.01 19 87.02 19 86 C19.99 86 20.98 86 22 86 C22 84.68 22 83.36 22 82 C22.99 82 23.98 82 25 82 C25 81.01 25 80.02 25 79 C25.99 79 26.98 79 28 79 C27.505 75.535 27.505 75.535 27 72 C25.35 72 23.7 72 22 72 C21.67 71.01 21.34 70.02 21 69 C14.4 68.67 7.8 68.34 1 68 C1.33 69.32 1.66 70.64 2 72 C-3.28 72 -8.56 72 -14 72 C-14.33 70.68 -14.66 69.36 -15 68 C-16.65 68 -18.3 68 -20 68 C-20.67260351 66.23141309 -21.33788395 64.46003984 -22 62.6875 C-22.37125 61.70136719 -22.7425 60.71523437 -23.125 59.69921875 C-24 57 -24 57 -24 54 C-23.01 54 -22.02 54 -21 54 C-21.33 52.68 -21.66 51.36 -22 50 C-16.39 50 -10.78 50 -5 50 C-4.67 51.32 -4.34 52.64 -4 54 C3.92 53.67 11.84 53.34 20 53 C20 52.01 20 51.02 20 50 C20.99 49.67 21.98 49.34 23 49 C23 48.01 23 47.02 23 46 C20.03 46 17.06 46 14 46 C13.67 45.34 13.34 44.68 13 44 C12.360625 43.89461914 11.72125 43.78923828 11.0625 43.68066406 C9 43 9 43 7.875 40.88964844 C7.441875 39.51341309 7.441875 39.51341309 7 38.109375 C6.67193359 37.09504395 6.34386719 36.08071289 6.00585938 35.03564453 C5.67392578 33.95138184 5.34199219 32.86711914 5 31.75 C4.65259766 30.65929199 4.30519531 29.56858398 3.94726562 28.44482422 C2.94971882 25.30105452 1.97348333 22.15128671 1 19 C0.53296119 17.52810177 0.06449248 16.05665541 -0.40625 14.5859375 C-3 6.37857143 -3 6.37857143 -3 4 C-1.68 4 -0.36 4 1 4 C0.67 2.68 0.34 1.36 0 0 Z M6 4 C6 4.99 6 5.98 6 7 C5.01 7.33 4.02 7.66 3 8 C4.2782377 15.21039598 6.09706028 22.10594701 8.375 29.0625 C8.66632813 30.01060547 8.95765625 30.95871094 9.2578125 31.93554688 C9.55171875 32.83466797 9.845625 33.73378906 10.1484375 34.66015625 C10.40802246 35.47105713 10.66760742 36.28195801 10.93505859 37.11743164 C11.82842338 39.21107312 11.82842338 39.21107312 14.05322266 39.58374023 C14.69565918 39.72110596 15.3380957 39.85847168 16 40 C16.33 40.99 16.66 41.98 17 43 C19.97 43 22.94 43 26 43 C26.99 46.63 27.98 50.26 29 54 C27.68 54 26.36 54 25 54 C25 54.66 25 55.32 25 56 C17.08 56.33 9.16 56.66 1 57 C1.99 59.64 2.98 62.28 4 65 C10.6 65.33 17.2 65.66 24 66 C24.33 66.66 24.66 67.32 25 68 C25.63421875 68.07089844 26.2684375 68.14179688 26.921875 68.21484375 C27.60765625 68.47394531 28.2934375 68.73304688 29 69 C30.265625 71.94140625 30.265625 71.94140625 31.25 75.5625 C31.58515625 76.76003906 31.9203125 77.95757812 32.265625 79.19140625 C32.62914062 80.58166016 32.62914062 80.58166016 33 82 C32.01 82 31.02 82 30 82 C30 83.32 30 84.64 30 86 C29.01 86 28.02 86 27 86 C27 86.99 27 87.98 27 89 C26.01 89 25.02 89 24 89 C24 89.99 24 90.98 24 92 C23.01 92 22.02 92 21 92 C21.66 94.97 22.32 97.94 23 101 C17.555 101.495 17.555 101.495 12 102 C12.33 103.32 12.66 104.64 13 106 C20.92 106 28.84 106 37 106 C35.02 99.07 35.02 99.07 33 92 C33.99 92 34.98 92 36 92 C36 91.01 36 90.02 36 89 C36.99 89 37.98 89 39 89 C39 88.01 39 87.02 39 86 C46.92 86 54.84 86 63 86 C63 86.99 63 87.98 63 89 C64.65 89 66.3 89 68 89 C68 89.99 68 90.98 68 92 C68.92039062 92.04447266 68.92039062 92.04447266 69.859375 92.08984375 C72 93 72 93 73.265625 95.94140625 C74.17708333 99.29427083 75.08854167 102.64713542 76 106 C83.59 106 91.18 106 99 106 C99 104.68 99 103.36 99 102 C95.04 101.67 91.08 101.34 87 101 C86.01 98.03 85.02 95.06 84 92 C82.68 92 81.36 92 80 92 C80 91.01 80 90.02 80 89 C78.35 89 76.7 89 75 89 C75 88.01 75 87.02 75 86 C74.360625 85.896875 73.72125 85.79375 73.0625 85.6875 C72.381875 85.460625 71.70125 85.23375 71 85 C70.67 84.01 70.34 83.02 70 82 C68.35 82 66.7 82 65 82 C64.814375 80.205625 64.814375 80.205625 64.625 78.375 C64.17674946 74.72403187 63.29553163 71.45475101 62 68 C63.32 68 64.64 68 66 68 C66 67.34 66 66.68 66 66 C75.9 65.505 75.9 65.505 86 65 C85.01 61.04 85.01 61.04 84 57 C75.75 57 67.5 57 59 57 C58.67 56.01 58.34 55.02 58 54 C56.68 54 55.36 54 54 54 C53.86722656 53.37351563 53.73445313 52.74703125 53.59765625 52.1015625 C53.42105469 51.28429687 53.24445313 50.46703125 53.0625 49.625 C52.88847656 48.81289062 52.71445312 48.00078125 52.53515625 47.1640625 C52.07669307 44.970537 52.07669307 44.970537 51 43 C53.64 43 56.28 43 59 43 C59 42.01 59 41.02 59 40 C59.99 39.67 60.98 39.34 62 39 C61.34664916 32.11914052 59.73500725 25.66453965 57.9375 19 C57.51500977 17.40865234 57.51500977 17.40865234 57.08398438 15.78515625 C56.39396867 13.18882599 55.69920797 10.59386689 55 8 C53.35 8 51.7 8 50 8 C49.505 6.02 49.505 6.02 49 4 C34.81 4 20.62 4 6 4 Z " fill="#0C0C0C" transform="translate(366,195)"/>
<path d="M0 0 C11.55 0 23.1 0 35 0 C35 1.32 35 2.64 35 4 C35.99 4 36.98 4 38 4 C37.59602983 7.95153511 37.18697915 11.90250767 36.77319336 15.85302734 C36.63311939 17.19728302 36.49443957 18.54168473 36.35717773 19.88623047 C36.15974828 21.81776053 35.95690385 23.74873469 35.75390625 25.6796875 C35.63345947 26.84226074 35.5130127 28.00483398 35.38891602 29.20263672 C35 32 35 32 34 34 C33.01 34 32.02 34 31 34 C31 34.99 31 35.98 31 37 C29.02 37 27.04 37 25 37 C25 37.99 25 38.98 25 40 C25.99 40 26.98 40 28 40 C28 40.99 28 41.98 28 43 C30.64680904 42.88660796 33.29177518 42.75987127 35.9375 42.625 C36.69224609 42.5940625 37.44699219 42.563125 38.22460938 42.53125 C40.15507395 42.4273685 42.07942081 42.22104386 44 42 C44.495 41.01 44.495 41.01 45 40 C48.63 40 52.26 40 56 40 C56 40.99 56 41.98 56 43 C56.66 43 57.32 43 58 43 C58.08159574 47.16138263 57.98248524 50.9472484 57 55 C56.01 55 55.02 55 54 55 C54 55.99 54 56.98 54 58 C50.04 58 46.08 58 42 58 C42.33 57.01 42.66 56.02 43 55 C38.38 55 33.76 55 29 55 C29 55.99 29 56.98 29 58 C28.01 58 27.02 58 26 58 C25.67 59.98 25.34 61.96 25 64 C25.99 64 26.98 64 28 64 C28 64.99 28 65.98 28 67 C28.66 67 29.32 67 30 67 C30 67.66 30 68.32 30 69 C30.99 69 31.98 69 33 69 C33 69.66 33 70.32 33 71 C33.66 71.33 34.32 71.66 35 72 C34.67 74.97 34.34 77.94 34 81 C36.64 81 39.28 81 42 81 C41.67 83.64 41.34 86.28 41 89 C34.07 89 27.14 89 20 89 C20 80 20 80 21 78 C20.01 78 19.02 78 18 78 C18 77.01 18 76.02 18 75 C17.34 75 16.68 75 16 75 C16 74.01 16 73.02 16 72 C12.37 72 8.74 72 5 72 C5 72.99 5 73.98 5 75 C4.01 75 3.02 75 2 75 C2 75.99 2 76.98 2 78 C1.01 78 0.02 78 -1 78 C-1.33 81.63 -1.66 85.26 -2 89 C-9.26 89 -16.52 89 -24 89 C-23.67 86.36 -23.34 83.72 -23 81 C-20.36 81 -17.72 81 -15 81 C-14.67 78.03 -14.34 75.06 -14 72 C-13.01 72 -12.02 72 -11 72 C-11 71.01 -11 70.02 -11 69 C-10.01 69 -9.02 69 -8 69 C-8 68.34 -8 67.68 -8 67 C-7.01 67 -6.02 67 -5 67 C-5 66.01 -5 65.02 -5 64 C-4.01 64 -3.02 64 -2 64 C-2 62.02 -2 60.04 -2 58 C-2.99 58 -3.98 58 -5 58 C-5 57.01 -5 56.02 -5 55 C-7.1464753 55.11344376 -9.29220592 55.24106345 -11.4375 55.375 C-13.22994141 55.47941406 -13.22994141 55.47941406 -15.05859375 55.5859375 C-16.51458984 55.79089844 -16.51458984 55.79089844 -18 56 C-18.33 56.66 -18.66 57.32 -19 58 C-22.63 58 -26.26 58 -30 58 C-30 57.01 -30 56.02 -30 55 C-30.66 55 -31.32 55 -32 55 C-32 51.04 -32 47.08 -32 43 C-31.01 43 -30.02 43 -29 43 C-29 42.01 -29 41.02 -29 40 C-25.04 40 -21.08 40 -17 40 C-17 40.99 -17 41.98 -17 43 C-14.35319096 42.88660796 -11.70822482 42.75987127 -9.0625 42.625 C-8.30775391 42.5940625 -7.55300781 42.563125 -6.77539062 42.53125 C-4.84492605 42.4273685 -2.92057919 42.22104386 -1 42 C-0.67 41.34 -0.34 40.68 0 40 C0.99 40 1.98 40 3 40 C3 39.01 3 38.02 3 37 C1.02 37 -0.96 37 -3 37 C-3 36.01 -3 35.02 -3 34 C-3.66 34 -4.32 34 -5 34 C-5.40820882 23.90817093 -4.16108676 14.00400644 -3 4 C-2.01 4 -1.02 4 0 4 C0 2.68 0 1.36 0 0 Z M3 4 C3 4.99 3 5.98 3 7 C2.01 7 1.02 7 0 7 C-2.52427653 14.57282958 -2.15440748 23.09090594 -2 31 C-1.34 31 -0.68 31 0 31 C0 31.99 0 32.98 0 34 C1.98 34 3.96 34 6 34 C5.67 36.97 5.34 39.94 5 43 C4.01 43 3.02 43 2 43 C2 43.99 2 44.98 2 46 C-3.61 46 -9.22 46 -15 46 C-15 47.98 -15 49.96 -15 52 C-10.71 52.33 -6.42 52.66 -2 53 C-2 53.66 -2 54.32 -2 55 C-1.01 55 -0.02 55 1 55 C0.67 58.96 0.34 62.92 0 67 C-0.99 67 -1.98 67 -3 67 C-3 67.66 -3 68.32 -3 69 C-3.99 69 -4.98 69 -6 69 C-6 69.99 -6 70.98 -6 72 C-6.99 72 -7.98 72 -9 72 C-9 72.99 -9 73.98 -9 75 C-9.99 75 -10.98 75 -12 75 C-12 77.64 -12 80.28 -12 83 C-14.97 83 -17.94 83 -21 83 C-21 83.99 -21 84.98 -21 86 C-15.39 86 -9.78 86 -4 86 C-4 82.37 -4 78.74 -4 75 C-3.01 75 -2.02 75 -1 75 C-1 74.01 -1 73.02 -1 72 C-0.01 72 0.98 72 2 72 C2 71.01 2 70.02 2 69 C7.61 69 13.22 69 19 69 C19 69.99 19 70.98 19 72 C19.66 72 20.32 72 21 72 C21 72.99 21 73.98 21 75 C21.99 75 22.98 75 24 75 C23.505 76.485 23.505 76.485 23 78 C23 80.64 23 83.28 23 86 C28.28 86 33.56 86 39 86 C39 85.01 39 84.02 39 83 C36.36 83 33.72 83 31 83 C31.33 80.36 31.66 77.72 32 75 C31.01 75 30.02 75 29 75 C29.495 73.515 29.495 73.515 30 72 C29.01 72 28.02 72 27 72 C27 71.01 27 70.02 27 69 C26.34 69 25.68 69 25 69 C25 68.34 25 67.68 25 67 C24.01 67 23.02 67 22 67 C22.165 66.319375 22.33 65.63875 22.5 64.9375 C23.07089059 61.5835178 23.06659023 58.39610195 23 55 C23.99 55 24.98 55 26 55 C26 54.01 26 53.02 26 52 C26.99902344 52.01160156 27.99804688 52.02320313 29.02734375 52.03515625 C30.31769531 52.04417969 31.60804688 52.05320313 32.9375 52.0625 C34.22527344 52.07410156 35.51304687 52.08570313 36.83984375 52.09765625 C39.86298403 52.36532549 39.86298403 52.36532549 41 51 C41 49.35 41 47.7 41 46 C35.72 45.67 30.44 45.34 25 45 C25 44.34 25 43.68 25 43 C24.01 43 23.02 43 22 43 C22.33 40.03 22.66 37.06 23 34 C24.98 34 26.96 34 29 34 C29 33.01 29 32.02 29 31 C29.99 31 30.98 31 32 31 C33.485 19.12 33.485 19.12 35 7 C34.01 7 33.02 7 32 7 C32 6.01 32 5.02 32 4 C22.43 4 12.86 4 3 4 Z " fill="#000000" transform="translate(784,19)"/>
<path d="M0 0 C1.37100283 5.20764317 2.33371218 9.5493678 2 15 C0.39284023 16.60715977 -1.37607537 16.21173531 -3.60351562 16.29711914 C-5.0886969 16.35705299 -5.0886969 16.35705299 -6.60388184 16.41819763 C-7.69366333 16.45679398 -8.78344482 16.49539032 -9.90625 16.53515625 C-11.03824829 16.57822403 -12.17024658 16.62129181 -13.33654785 16.66566467 C-17.05750008 16.8042212 -20.77868485 16.93408257 -24.5 17.0625 C-26.385979 17.12978302 -26.385979 17.12978302 -28.31005859 17.19842529 C-50.88036906 17.99509649 -73.41842377 18.2492871 -96 18 C-96.02685095 15.52076199 -96.04676547 13.0418116 -96.0625 10.5625 C-96.07506836 9.50192383 -96.07506836 9.50192383 -96.08789062 8.41992188 C-96.09653588 6.61306441 -96.05220011 4.80612397 -96 3 C-94.26356936 1.26356936 -91.87242357 1.77866585 -89.50341797 1.70288086 C-88.32222382 1.66291489 -87.14102966 1.62294891 -85.92404175 1.58177185 C-84.62652985 1.54318558 -83.32901794 1.5045993 -81.9921875 1.46484375 C-80.63297646 1.4217143 -79.27377451 1.37829779 -77.9145813 1.33460999 C-75.03770591 1.24327221 -72.16074913 1.15546417 -69.28369141 1.07006836 C-65.69712866 0.96335368 -62.11089924 0.84827803 -58.52468491 0.73050499 C-39.01079609 0.09461853 -19.52394855 -0.12584355 0 0 Z " fill="#C4C4C4" transform="translate(728,721)"/>
<path d="M0 0 C4.3924631 -0.07482575 8.78457672 -0.12891683 13.17749023 -0.16479492 C14.66811598 -0.17977042 16.15869851 -0.20015819 17.64916992 -0.22631836 C32.2021065 -0.4751282 32.2021065 -0.4751282 38.84106445 2.22192383 C41.41976028 3.15128079 43.8979349 3.53236979 46.609375 3.9296875 C53.9882967 5.06112216 61.08007971 7.08489528 68.25 9.125 C69.5922861 9.50187888 70.93473336 9.87818426 72.27734375 10.25390625 C75.51985074 11.1636744 78.7606323 12.07912878 82 13 C82 13.33 82 13.66 82 14 C72.58442569 13.58510059 63.24368177 12.96895969 53.87890625 11.89453125 C51.30523648 11.62276588 48.73103543 11.35688043 46.15649414 11.09350586 C44.41257466 10.90458809 42.67056358 10.69723259 40.9309082 10.47241211 C30.32470138 8.75353819 30.32470138 8.75353819 20.5402832 12.00976562 C17.77774761 14.52671659 15.39020218 17.13224914 13 20 C11.91624984 20.96897418 10.80845018 21.91314591 9.66015625 22.8046875 C5.80761541 25.87471728 5.80761541 25.87471728 2 29 C1.27868896 29.565979 0.55737793 30.13195801 -0.18579102 30.71508789 C-2.30504586 32.90984848 -2.30504586 32.90984848 -2.05859375 36.03344727 C-1.85363281 37.19932373 -1.64867187 38.3652002 -1.4375 39.56640625 C-1.21707031 40.85740234 -0.99664063 42.14839844 -0.76953125 43.47851562 C-0.57931396 44.48652222 -0.57931396 44.48652222 -0.38525391 45.51489258 C-0.00651392 47.52787882 0.33756379 49.54430946 0.67578125 51.56445312 C1.9043205 58.62844493 3.55819778 65.27612296 6.23046875 71.94116211 C7 74 7 74 7 76 C5.1875 75.4375 5.1875 75.4375 3 74 C1.91698965 71.70401807 0.92203709 69.36522558 0 67 C-1.83294479 63.56322852 -2.71229441 62.19180373 -6 60 C-6.68753301 58.34183216 -7.35561283 56.67540664 -8 55 C-8.66 54.67 -9.32 54.34 -10 54 C-10.05863894 49.85422725 -10.09380984 45.70856295 -10.125 41.5625 C-10.14175781 40.39783203 -10.15851562 39.23316406 -10.17578125 38.03320312 C-10.21332458 31.3692619 -9.92566243 25.40316423 -8 19 C-7.34 18.67 -6.68 18.34 -6 18 C-5.31527335 16.11235097 -5.31527335 16.11235097 -4.875 13.9375 C-4.62363281 12.83728516 -4.62363281 12.83728516 -4.3671875 11.71484375 C-4.24601563 11.14894531 -4.12484375 10.58304688 -4 10 C-3.34 10 -2.68 10 -2 10 C-1.34 6.7 -0.68 3.4 0 0 Z " fill="#394054" transform="translate(842,524)"/>
<path d="M0 0 C2.31 0 4.62 0 7 0 C11.10128126 12.74371798 14.74269121 25.59866142 18.3125 38.5 C18.8676038 40.49876312 19.42294091 42.49746147 19.97851562 44.49609375 C21.32169349 49.32998873 22.66173811 54.16474184 24 59 C23.01 59.99 22.02 60.98 21 62 C20.34 61.67 19.68 61.34 19 61 C19.66 60.01 20.32 59.02 21 58 C20.13987305 57.73413086 19.27974609 57.46826172 18.39355469 57.19433594 C14.98564094 55.99494644 11.91769026 54.53521868 8.703125 52.890625 C-9.41034439 43.56497587 -9.41034439 43.56497587 -29.16845703 44.31005859 C-35.02505664 45.73709347 -40.99779704 46.66533296 -46.93151855 47.71737671 C-49.14667703 48.11762388 -51.35720395 48.53729349 -53.56738281 48.96411133 C-54.26767105 49.09746384 -54.96795929 49.23081635 -55.68946838 49.36820984 C-57.6142081 49.73561973 -59.53797313 50.10812513 -61.46166992 50.48095703 C-65.02809069 51.00412067 -68.40100935 51.09174181 -72 51 C-72 50.67 -72 50.34 -72 50 C-71.33236633 49.88804291 -70.66473267 49.77608582 -69.97686768 49.66073608 C-63.02849477 48.49036172 -56.0870134 47.28422239 -49.1484375 46.05712891 C-46.55823529 45.60390841 -43.96641613 45.15982996 -41.37304688 44.72509766 C-37.64510499 44.09854081 -33.92421795 43.4393163 -30.203125 42.7734375 C-29.04258606 42.58566742 -27.88204712 42.39789734 -26.68634033 42.20443726 C-20.23600192 41.11108063 -20.23600192 41.11108063 -15.35839844 37.01806641 C-14.68599121 35.52412354 -14.68599121 35.52412354 -14 34 C-12.00099 30.84027451 -10.18158956 28.17704983 -7.5 25.5625 C-5.18519371 23.18982355 -3.66420043 20.93945531 -2.109375 18.02734375 C-0.31050342 14.73996929 1.73117232 11.59819273 3.73046875 8.4296875 C5.03971791 5.92398604 5.58885948 3.78386711 6 1 C4.02 1 2.04 1 0 1 C0 0.67 0 0.34 0 0 Z " fill="#E72D37" transform="translate(920,538)"/>
<path d="M0 0 C1 2 1 2 0.44140625 4.1640625 C0.15136719 4.97617187 -0.13867188 5.78828125 -0.4375 6.625 C-0.86869141 7.85089844 -0.86869141 7.85089844 -1.30859375 9.1015625 C-1.53675781 9.72804688 -1.76492188 10.35453125 -2 11 C-2.66 11 -3.32 11 -4 11 C-3.87625 11.99 -3.87625 11.99 -3.75 13 C-4.04552903 16.54634832 -5.24851494 18.6378054 -6.91015625 21.73046875 C-8.7914692 25.64818497 -9.86808461 29.81534312 -11 34 C-11.66 34 -12.32 34 -13 34 C-13.33 36.64 -13.66 39.28 -14 42 C-14.66 42 -15.32 42 -16 42 C-16.66 45.3 -17.32 48.6 -18 52 C-18.66 52 -19.32 52 -20 52 C-26.76965702 25.61046962 -26.76965702 25.61046962 -24.04003906 18.49902344 C-21.12046293 14.61616556 -17.22565942 12.33593277 -12.97558594 10.10449219 C-9.84739805 8.35561404 -7.33576681 6.09079338 -4.625 3.75 C-3.08474283 2.49826362 -1.54366403 1.24753256 0 0 Z " fill="#962F2C" transform="translate(864,535)"/>
<path d="M0 0 C8.5722733 3.80768419 15.60239492 11.49329315 22.4609375 17.7421875 C26.00492299 20.89360844 29.68537697 23.86448008 33.37109375 26.84765625 C36.99150687 29.81176863 40.5070741 32.88739268 44 36 C43.01 36.495 43.01 36.495 42 37 C39.49878046 36.07700565 37.11610745 35.08895731 34.69140625 33.9921875 C33.96888168 33.66969025 33.24635712 33.34719299 32.50193787 33.0149231 C30.97100821 32.32792948 29.44200569 31.63662787 27.91479492 30.94140625 C25.58254026 29.8840852 23.24030059 28.8517002 20.89648438 27.8203125 C19.41077858 27.14994197 17.92572978 26.47811308 16.44140625 25.8046875 C15.7413295 25.49925018 15.04125275 25.19381287 14.31996155 24.87911987 C10.08969534 22.91819097 7.93760687 21.25565139 6 17 C5.70585205 16.36876221 5.4117041 15.73752441 5.10864258 15.0871582 C4.87298584 14.49765381 4.6373291 13.90814941 4.39453125 13.30078125 C4.13349609 12.64916016 3.87246094 11.99753906 3.60351562 11.32617188 C3.34248047 10.66166016 3.08144531 9.99714844 2.8125 9.3125 C2.40354492 8.29833008 2.40354492 8.29833008 1.98632812 7.26367188 C0 2.26051457 0 2.26051457 0 0 Z " fill="#AD3632" transform="translate(846,591)"/>
<path d="M0 0 C0.22114415 2.79119779 0.42743301 5.5821212 0.625 8.375 C0.68945312 9.1690625 0.75390625 9.963125 0.8203125 10.78125 C0.96058587 12.85028224 0.98758237 14.92625536 1 17 C-1.58926331 19.58926331 -3.02705279 19.37398043 -6.625 19.625 C-7.62789062 19.69976563 -8.63078125 19.77453125 -9.6640625 19.8515625 C-10.82035156 19.92503906 -10.82035156 19.92503906 -12 20 C-12.12117187 19.00097656 -12.24234375 18.00195312 -12.3671875 16.97265625 C-12.53476562 15.68230469 -12.70234375 14.39195312 -12.875 13.0625 C-13.03742187 11.77472656 -13.19984375 10.48695313 -13.3671875 9.16015625 C-13.57601562 8.11730469 -13.78484375 7.07445312 -14 6 C-14.66 5.67 -15.32 5.34 -16 5 C-16 4.34 -16 3.68 -16 3 C-15.34 3 -14.68 3 -14 3 C-14 2.34 -14 1.68 -14 1 C-9.2646044 0.34684199 -4.78966676 -0.05489589 0 0 Z " fill="#C7121A" transform="translate(878,557)"/>
<path d="M0 0 C1.49574016 0.43481196 2.99183212 0.86841562 4.48828125 1.30078125 C8.12139282 2.35330303 11.74935456 3.42205375 15.375 4.5 C15.375 4.83 15.375 5.16 15.375 5.5 C3.80079559 4.90412263 -7.75685571 4.18849076 -19.30883789 3.25268555 C-20.9247187 3.12348806 -22.54095203 2.99864083 -24.1574707 2.87768555 C-26.53418645 2.69972062 -28.90963316 2.50956436 -31.28515625 2.31640625 C-32.01098404 2.26424454 -32.73681183 2.21208282 -33.4846344 2.15834045 C-35.20579799 2.01109394 -36.91801837 1.76514024 -38.625 1.5 C-38.955 0.84 -39.285 0.18 -39.625 -0.5 C-37.67311022 -1.18530299 -35.71299268 -1.84718026 -33.75 -2.5 C-32.65945313 -2.87125 -31.56890625 -3.2425 -30.4453125 -3.625 C-19.66557893 -6.09397783 -10.31318263 -3.0712809 0 0 Z " fill="#934B46" transform="translate(908.625,532.5)"/>
<path d="M0 0 C4.78717542 -0.04943465 9.57420227 -0.08573582 14.36157227 -0.10986328 C15.99017932 -0.11992142 17.61876832 -0.13356958 19.24731445 -0.15087891 C21.58809872 -0.17513574 23.92864424 -0.18648483 26.26953125 -0.1953125 C26.99775589 -0.20563507 27.72598053 -0.21595764 28.47627258 -0.22659302 C32.21275069 -0.22742249 33.80675056 -0.12883296 37 2 C39.57713254 2.4562792 42.09298285 2.82945276 44.6875 3.125 C45.7403418 3.25455078 45.7403418 3.25455078 46.81445312 3.38671875 C48.54211145 3.59826875 50.2709566 3.800086 52 4 C52.495 5.485 52.495 5.485 53 7 C50.62388845 6.71583399 48.24939504 6.42291099 45.875 6.125 C44.87726562 6.00705078 44.87726562 6.00705078 43.859375 5.88671875 C40.83777527 5.5016129 38.08592111 5.03131535 35.21875 3.98632812 C31.57602421 2.87008023 28.43874779 2.68029953 24.6328125 2.5859375 C23.95322479 2.56657135 23.27363708 2.5472052 22.57345581 2.5272522 C20.42409421 2.46794901 18.27467759 2.42127109 16.125 2.375 C14.6588321 2.33677468 13.19268557 2.29772036 11.7265625 2.2578125 C8.15123836 2.16228956 4.57575252 2.07807874 1 2 C0.34 5.3 -0.32 8.6 -1 12 C-1.66 12 -2.32 12 -3 12 C-3.33 14.64 -3.66 17.28 -4 20 C-4.99 20.33 -5.98 20.66 -7 21 C-7.95668155 28.5167836 -8.30694665 35.99225573 -8.5625 43.5625 C-8.60568359 44.76197266 -8.64886719 45.96144531 -8.69335938 47.19726562 C-8.79856802 50.13141793 -8.90070883 53.0656425 -9 56 C-9.66 55.67 -10.32 55.34 -11 55 C-11.28012897 42.84551507 -10.48313384 31.06370475 -9 19 C-8.34 19 -7.68 19 -7 19 C-6.67 16.36 -6.34 13.72 -6 11 C-5.01 10.67 -4.02 10.34 -3 10 C-2.87625 9.0925 -2.7525 8.185 -2.625 7.25 C-2.0724341 4.37665731 -1.35517759 2.53407191 0 0 Z " fill="#64636A" transform="translate(841,522)"/>
<path d="M0 0 C2.97 0 5.94 0 9 0 C9 0.99 9 1.98 9 3 C10.65 3.33 12.3 3.66 14 4 C14.33 6.31 14.66 8.62 15 11 C13.68 11 12.36 11 11 11 C11.33 11.99 11.66 12.98 12 14 C9.03 14 6.06 14 3 14 C3 13.01 3 12.02 3 11 C1.35 10.67 -0.3 10.34 -2 10 C-2.33 7.69 -2.66 5.38 -3 3 C-1.68 3 -0.36 3 1 3 C0.67 2.01 0.34 1.02 0 0 Z " fill="#CFCFCF" transform="translate(457,249)"/>
<path d="M0 0 C2.64 0 5.28 0 8 0 C8.33 0.66 8.66 1.32 9 2 C10.2065625 2.3403125 10.2065625 2.3403125 11.4375 2.6875 C14 4 14 4 15.3125 7.625 C15.539375 8.73875 15.76625 9.8525 16 11 C14.68 11 13.36 11 12 11 C12 11.99 12 12.98 12 14 C9.36 14 6.72 14 4 14 C4 13.01 4 12.02 4 11 C2.35 11 0.7 11 -1 11 C-2.25664978 8.09399739 -3 6.20395416 -3 3 C-2.01 3 -1.02 3 0 3 C0 2.01 0 1.02 0 0 Z " fill="#CFCFCF" transform="translate(350,249)"/>
<path d="M0 0 C2.3125 1.875 2.3125 1.875 4 4 C4 4.99 4 5.98 4 7 C2.0625 6.1875 2.0625 6.1875 0 5 C-0.33 4.01 -0.66 3.02 -1 2 C-2.65 2 -4.3 2 -6 2 C-5.67 4.64 -5.34 7.28 -5 10 C-11.9156051 13.85987261 -11.9156051 13.85987261 -16 13 C-18.375 10.75 -18.375 10.75 -20 8 C-19.75 5.6875 -19.75 5.6875 -19 4 C-17.02 4.495 -17.02 4.495 -15 5 C-15 6.32 -15 7.64 -15 9 C-13.02 8.67 -11.04 8.34 -9 8 C-9.33 5.69 -9.66 3.38 -10 1 C-6.24972714 -0.8215611 -3.98024101 -1.42880447 0 0 Z " fill="#4C0B13" transform="translate(909,543)"/>
<path d="M0 0 C1.32 0 2.64 0 4 0 C4.33 0.66 4.66 1.32 5 2 C5.99 2 6.98 2 8 2 C8 2.66 8 3.32 8 4 C8.99 4 9.98 4 11 4 C10.67 4.99 10.34 5.98 10 7 C9.01 6.67 8.02 6.34 7 6 C8.07401108 8.91517292 8.77810176 10.77810176 11 13 C11.33870968 19.32258065 11.33870968 19.32258065 10 22 C7.525 21.01 7.525 21.01 5 20 C5.33 19.01 5.66 18.02 6 17 C6.99 17.66 7.98 18.32 9 19 C9 17.02 9 15.04 9 13 C7.68 12.67 6.36 12.34 5 12 C4.34 14.31 3.68 16.62 3 19 C2.01 18.67 1.02 18.34 0 18 C0 12.06 0 6.12 0 0 Z " fill="#BD1C22" transform="translate(919,561)"/>
<path d="M0 0 C0 0.33 0 0.66 0 1 C1.28583984 1.07347656 1.28583984 1.07347656 2.59765625 1.1484375 C8.66756456 1.54534244 14.24397411 1.99208399 20 4 C20 4.33 20 4.66 20 5 C8.90032623 6.37518082 -2.93749784 6.99087475 -14 5 C-14.33 4.34 -14.66 3.68 -15 3 C-13.44033782 2.491217 -11.87710759 1.99336531 -10.3125 1.5 C-9.44238281 1.2215625 -8.57226562 0.943125 -7.67578125 0.65625 C-5.00608323 0.00149195 -2.73603316 -0.11831495 0 0 Z " fill="#984742" transform="translate(884,529)"/>
<path d="M0 0 C2.95399506 1.35153828 5.23557476 2.8967985 7.671875 5.0390625 C8.33574219 5.61914062 8.99960937 6.19921875 9.68359375 6.796875 C10.36550781 7.40015625 11.04742188 8.0034375 11.75 8.625 C12.44738281 9.23601563 13.14476562 9.84703125 13.86328125 10.4765625 C15.5788674 11.98063803 17.29093409 13.48852498 19 15 C17 16 17 16 15.26000977 15.42675781 C14.23605103 14.94480957 14.23605103 14.94480957 13.19140625 14.453125 C12.44439453 14.1025 11.69738281 13.751875 10.92773438 13.390625 C9.75694336 12.82601562 9.75694336 12.82601562 8.5625 12.25 C7.78583984 11.8890625 7.00917969 11.528125 6.20898438 11.15625 C-0.68211923 7.87985966 -0.68211923 7.87985966 -3 5 C-3 4.01 -3 3.02 -3 2 C-2.01 2 -1.02 2 0 2 C0 1.34 0 0.68 0 0 Z M-2 3 C-1 5 -1 5 -1 5 Z " fill="#B73732" transform="translate(871,612)"/>
<path d="M0 0 C1.98 0 3.96 0 6 0 C6 0.99 6 1.98 6 3 C6.66 3 7.32 3 8 3 C8 4.98 8 6.96 8 9 C7.01 9 6.02 9 5 9 C5 9.99 5 10.98 5 12 C3.02 12 1.04 12 -1 12 C-1 11.01 -1 10.02 -1 9 C-1.66 9 -2.32 9 -3 9 C-3 7.02 -3 5.04 -3 3 C-2.01 3 -1.02 3 0 3 C0 2.01 0 1.02 0 0 Z " fill="#9E2F30" transform="translate(758,62)"/>
<path d="M0 0 C1.98 0 3.96 0 6 0 C6 0.66 6 1.32 6 2 C6.66 2.33 7.32 2.66 8 3 C8.36337162 6.27034459 8.28544288 7.60883753 6.3125 10.3125 C3.60883753 12.28544288 2.27034459 12.36337162 -1 12 C-1 11.01 -1 10.02 -1 9 C-1.99 9 -2.98 9 -4 9 C-3.67 7.02 -3.34 5.04 -3 3 C-2.01 3 -1.02 3 0 3 C0 2.01 0 1.02 0 0 Z " fill="#9E2F30" transform="translate(831,62)"/>
<path d="M0 0 C1.1492179 2.80844375 1.02050018 3.94169014 -0.00390625 6.85546875 C-0.51824219 7.95503906 -1.03257812 9.05460938 -1.5625 10.1875 C-6.53015584 21.14448655 -10.26108085 32.57552483 -14 44 C-14.66 43.67 -15.32 43.34 -16 43 C-15.34 39.7 -14.68 36.4 -14 33 C-13.34 33 -12.68 33 -12 33 C-11.67 30.36 -11.34 27.72 -11 25 C-10.34 25 -9.68 25 -9 25 C-8.9175 24.05125 -8.835 23.1025 -8.75 22.125 C-8.16218633 17.92511396 -6.62212642 14.27042837 -4.98828125 10.37890625 C-3.84597744 7.62925004 -2.89638628 4.83855655 -2 2 C-1.34 2 -0.68 2 0 2 C0 1.34 0 0.68 0 0 Z " fill="#CF2329" transform="translate(862,544)"/>
<path d="M0 0 C3.63 0 7.26 0 11 0 C11 3.63 11 7.26 11 11 C10.34 11 9.68 11 9 11 C8.67 9.68 8.34 8.36 8 7 C6.02 7 4.04 7 2 7 C2 8.32 2 9.64 2 11 C1.34 11 0.68 11 0 11 C0 7.37 0 3.74 0 0 Z " fill="#AAAAAA" transform="translate(659,725)"/>
<path d="M0 0 C2.31 0 4.62 0 7 0 C6.85892253 1.45880109 6.71197585 2.91703551 6.5625 4.375 C6.48128906 5.18710937 6.40007813 5.99921875 6.31640625 6.8359375 C6 9 6 9 5 11 C2.93359375 11.4140625 2.93359375 11.4140625 0.4375 11.625 C-0.80193359 11.73714844 -0.80193359 11.73714844 -2.06640625 11.8515625 C-3.02353516 11.92503906 -3.02353516 11.92503906 -4 12 C-2.66666667 8 -1.33333333 4 0 0 Z " fill="#822C29" transform="translate(849,553)"/>
<path d="M0 0 C3.625 0.375 3.625 0.375 7 1 C7.09765625 7.15234375 7.09765625 7.15234375 7 9 C6 10 6 10 2.5625 10.25 C1.386875 10.1675 0.21125 10.085 -1 10 C-3 7 -3 7 -2.75 4.4375 C-2 2 -2 2 0 0 Z " fill="#A3A3A3" transform="translate(675,725)"/>
<path d="M0 0 C8.06480039 2.13337405 16.03946386 4.50679552 24 7 C24 7.99 24 8.98 24 10 C22.26969709 9.71515154 20.54079286 9.42180062 18.8125 9.125 C17.84957031 8.96257813 16.88664063 8.80015625 15.89453125 8.6328125 C13 8 13 8 10.40625 6.9375 C7.94884258 5.98006854 6.29933093 5.78646336 3.6875 5.875 C2.470625 5.91625 1.25375 5.9575 0 6 C0 4.02 0 2.04 0 0 Z " fill="#580F0F" transform="translate(867,593)"/>
<path d="M0 0 C0.66 0.33 1.32 0.66 2 1 C1.731875 1.9075 1.46375 2.815 1.1875 3.75 C0.79068434 5.16639183 0.39499292 6.58309878 0 8 C-0.24685547 8.84369141 -0.49371094 9.68738281 -0.74804688 10.55664062 C-2.88670647 18.33794823 -3.52819452 25.70279758 -3.6875 33.75 C-3.72166016 34.9359375 -3.75582031 36.121875 -3.79101562 37.34375 C-3.87245616 40.22907185 -3.94193613 43.1141295 -4 46 C-4.66 45.67 -5.32 45.34 -6 45 C-6.28012897 32.84551507 -5.48313384 21.06370475 -4 9 C-3.34 9 -2.68 9 -2 9 C-1.855625 7.700625 -1.71125 6.40125 -1.5625 5.0625 C-1.125 1.125 -1.125 1.125 0 0 Z " fill="#777274" transform="translate(836,532)"/>
<path d="M0 0 C2.64 0 5.28 0 8 0 C8 0.66 8 1.32 8 2 C7.01 2.495 7.01 2.495 6 3 C6.99 3.66 7.98 4.32 9 5 C8.625 6.9375 8.625 6.9375 8 9 C5.04335481 10.4783226 2.25770263 10.06032783 -1 10 C-1.66 8.68 -2.32 7.36 -3 6 C-1.35 6 0.3 6 2 6 C1.01 5.67 0.02 5.34 -1 5 C-0.67 3.35 -0.34 1.7 0 0 Z " fill="#C1C0BF" transform="translate(512,503)"/>
<path d="M0 0 C0.66 0 1.32 0 2 0 C1.67 2.97 1.34 5.94 1 9 C-5.84817102 8.51358785 -12.33042073 7.64006048 -19 6 C-19 5.01 -19 4.02 -19 3 C-12.85845775 3.58490879 -6.99320151 4.54066252 -1 6 C-0.67 4.02 -0.34 2.04 0 0 Z " fill="#520F0E" transform="translate(922,596)"/>
<path d="M0 0 C1.37478516 0.01740234 1.37478516 0.01740234 2.77734375 0.03515625 C3.69644531 0.04417969 4.61554688 0.05320312 5.5625 0.0625 C6.27277344 0.07410156 6.98304688 0.08570313 7.71484375 0.09765625 C7.71484375 0.75765625 7.71484375 1.41765625 7.71484375 2.09765625 C5.07484375 2.09765625 2.43484375 2.09765625 -0.28515625 2.09765625 C-0.28515625 2.75765625 -0.28515625 3.41765625 -0.28515625 4.09765625 C2.02484375 4.09765625 4.33484375 4.09765625 6.71484375 4.09765625 C6.71484375 4.75765625 6.71484375 5.41765625 6.71484375 6.09765625 C4.07484375 6.09765625 1.43484375 6.09765625 -1.28515625 6.09765625 C-1.28515625 6.75765625 -1.28515625 7.41765625 -1.28515625 8.09765625 C1.35484375 8.09765625 3.99484375 8.09765625 6.71484375 8.09765625 C6.38484375 8.75765625 6.05484375 9.41765625 5.71484375 10.09765625 C2.08484375 10.09765625 -1.54515625 10.09765625 -5.28515625 10.09765625 C-3.18056441 0.13592156 -3.18056441 0.13592156 0 0 Z " fill="#C3C2C1" transform="translate(445.28515625,503.90234375)"/>
<path d="M0 0 C3.63 0 7.26 0 11 0 C11 0.66 11 1.32 11 2 C8.36 2 5.72 2 3 2 C3 2.66 3 3.32 3 4 C4.98 4 6.96 4 9 4 C9 4.66 9 5.32 9 6 C6.69 6 4.38 6 2 6 C2 6.66 2 7.32 2 8 C4.64 8 7.28 8 10 8 C10 8.66 10 9.32 10 10 C6.37 10 2.74 10 -1 10 C-0.67 6.7 -0.34 3.4 0 0 Z " fill="#C2C1C1" transform="translate(498,503)"/>
<path d="M0 0 C1.22589844 0.01353516 1.22589844 0.01353516 2.4765625 0.02734375 C3.41628906 0.04474609 3.41628906 0.04474609 4.375 0.0625 C4.375 0.7225 4.375 1.3825 4.375 2.0625 C1.405 2.0625 -1.565 2.0625 -4.625 2.0625 C-4.625 2.7225 -4.625 3.3825 -4.625 4.0625 C-2.315 4.0625 -0.005 4.0625 2.375 4.0625 C2.375 4.7225 2.375 5.3825 2.375 6.0625 C-0.265 6.0625 -2.905 6.0625 -5.625 6.0625 C-5.625 6.7225 -5.625 7.3825 -5.625 8.0625 C-2.985 8.0625 -0.345 8.0625 2.375 8.0625 C2.045 8.7225 1.715 9.3825 1.375 10.0625 C-2.255 10.0625 -5.885 10.0625 -9.625 10.0625 C-7.4765625 3.12890625 -7.4765625 3.12890625 -6.625 1.0625 C-4.21954362 -0.14022819 -2.67503047 -0.03821472 0 0 Z " fill="#C2C1C0" transform="translate(393.625,504.9375)"/>
<path d="M0 0 C0.33 0.99 0.66 1.98 1 3 C-0.98 3 -2.96 3 -5 3 C-2.525 3.99 -2.525 3.99 0 5 C-0.375 6.9375 -0.375 6.9375 -1 9 C-3.95664519 10.4783226 -6.74229737 10.06032783 -10 10 C-10.33 9.01 -10.66 8.02 -11 7 C-8.69 7 -6.38 7 -4 7 C-5.98 6.34 -7.96 5.68 -10 5 C-10 3.68 -10 2.36 -10 1 C-6.78548731 -0.60725635 -3.56387464 -0.05748185 0 0 Z " fill="#BFBDBD" transform="translate(465,504)"/>
<path d="M0 0 C0.19384179 2.81219705 0.38036603 5.62454196 0.5625 8.4375 C0.61857422 9.23994141 0.67464844 10.04238281 0.73242188 10.86914062 C0.8616295 12.91062111 0.9351273 14.95546369 1 17 C0 18 0 18 -3.0625 18.0625 C-4.031875 18.041875 -5.00125 18.02125 -6 18 C-6.33 17.01 -6.66 16.02 -7 15 C-5.35 15 -3.7 15 -2 15 C-2 13.68 -2 12.36 -2 11 C-2.99 10.67 -3.98 10.34 -5 10 C-5 9.34 -5 8.68 -5 8 C-4.01 8 -3.02 8 -2 8 C-2 6.02 -2 4.04 -2 2 C-3.32 2 -4.64 2 -6 2 C-6 2.66 -6 3.32 -6 4 C-6.66 4 -7.32 4 -8 4 C-8 3.01 -8 2.02 -8 1 C-5.29120665 -0.35439668 -2.99066732 -0.06501451 0 0 Z " fill="#480B12" transform="translate(878,557)"/>
<path d="M0 0 C2.05078125 0.03255208 4.1015625 0.06510417 6.15234375 0.09765625 C6.48234375 1.08765625 6.81234375 2.07765625 7.15234375 3.09765625 C4.51234375 2.76765625 1.87234375 2.43765625 -0.84765625 2.09765625 C-0.84765625 2.75765625 -0.84765625 3.41765625 -0.84765625 4.09765625 C1.13234375 4.09765625 3.11234375 4.09765625 5.15234375 4.09765625 C5.77734375 5.97265625 5.77734375 5.97265625 6.15234375 8.09765625 C4.15234375 10.09765625 4.15234375 10.09765625 1.98828125 10.29296875 C0.77011719 10.25816406 0.77011719 10.25816406 -0.47265625 10.22265625 C-1.28992188 10.20460938 -2.1071875 10.1865625 -2.94921875 10.16796875 C-3.57570313 10.14476562 -4.2021875 10.1215625 -4.84765625 10.09765625 C-5.17765625 9.10765625 -5.50765625 8.11765625 -5.84765625 7.09765625 C-2.87765625 7.42765625 0.09234375 7.75765625 3.15234375 8.09765625 C3.15234375 7.43765625 3.15234375 6.77765625 3.15234375 6.09765625 C0.84234375 5.76765625 -1.46765625 5.43765625 -3.84765625 5.09765625 C-2.72914438 0.14424653 -2.72914438 0.14424653 0 0 Z " fill="#C2C1C0" transform="translate(402.84765625,504.90234375)"/>
<path d="M0 0 C6.1917261 0.53841097 12.04364935 2.28741455 18 4 C18 4.33 18 4.66 18 5 C7.98573465 4.47703281 -2.01255997 3.92041114 -12 3 C-12 2.67 -12 2.34 -12 2 C-11.21753906 1.93941406 -10.43507813 1.87882813 -9.62890625 1.81640625 C-8.61699219 1.73261719 -7.60507812 1.64882813 -6.5625 1.5625 C-5.55316406 1.48128906 -4.54382813 1.40007813 -3.50390625 1.31640625 C-1.06359221 1.26788532 -1.06359221 1.26788532 0 0 Z " fill="#9E4642" transform="translate(906,533)"/>
<path d="M0 0 C3.91442749 1.25820884 5.24541134 3.66923747 7.1328125 7.1953125 C8 9 8 9 9 11.6875 C10.19077281 14.44116212 11.78689918 16.00820926 14 18 C13.67 18.66 13.34 19.32 13 20 C6.29307213 15.17101194 3.11227979 9.61539523 0 2 C0 1.34 0 0.68 0 0 Z " fill="#716A6E" transform="translate(837,585)"/>
<path d="M0 0 C1.65 0.33 3.3 0.66 5 1 C4.67 1.99 4.34 2.98 4 4 C3.01 3.67 2.02 3.34 1 3 C2.07401108 5.91517292 2.77810176 7.77810176 5 10 C5.33870968 16.32258065 5.33870968 16.32258065 4 19 C1.525 18.01 1.525 18.01 -1 17 C-0.505 15.515 -0.505 15.515 0 14 C1.485 14.99 1.485 14.99 3 16 C3 14.02 3 12.04 3 10 C2.34 10 1.68 10 1 10 C-0.60725635 6.78548731 -0.05748185 3.56387464 0 0 Z " fill="#50222B" transform="translate(925,564)"/>
<path d="M0 0 C1.51400391 0.01740234 1.51400391 0.01740234 3.05859375 0.03515625 C4.07050781 0.04417969 5.08242188 0.05320312 6.125 0.0625 C7.29869141 0.07990234 7.29869141 0.07990234 8.49609375 0.09765625 C8.49609375 0.75765625 8.49609375 1.41765625 8.49609375 2.09765625 C6.84609375 2.09765625 5.19609375 2.09765625 3.49609375 2.09765625 C3.16609375 4.40765625 2.83609375 6.71765625 2.49609375 9.09765625 C1.17609375 9.42765625 -0.14390625 9.75765625 -1.50390625 10.09765625 C-0.62890625 4.34765625 -0.62890625 4.34765625 0.49609375 2.09765625 C-0.82390625 1.76765625 -2.14390625 1.43765625 -3.50390625 1.09765625 C-2.50390625 0.09765625 -2.50390625 0.09765625 0 0 Z " fill="#BDBBBB" transform="translate(376.50390625,505.90234375)"/>
<path d="M0 0 C2.35448675 -0.05454409 4.70767875 -0.0939279 7.0625 -0.125 C9.02896484 -0.15980469 9.02896484 -0.15980469 11.03515625 -0.1953125 C15.11824299 0.00582478 18.14999053 0.72834538 22 2 C22 2.33 22 2.66 22 3 C7.40318907 4.70159453 7.40318907 4.70159453 0 1 C0 0.67 0 0.34 0 0 Z " fill="#6F3E3A" transform="translate(882,531)"/>
<path d="M0 0 C1.8871875 0.0309375 1.8871875 0.0309375 3.8125 0.0625 C3.8125 0.7225 3.8125 1.3825 3.8125 2.0625 C2.4925 2.0625 1.1725 2.0625 -0.1875 2.0625 C-0.5175 4.7025 -0.8475 7.3425 -1.1875 10.0625 C-2.1775 10.0625 -3.1675 10.0625 -4.1875 10.0625 C-4.1875 7.7525 -4.1875 5.4425 -4.1875 3.0625 C-5.1775 3.0625 -6.1675 3.0625 -7.1875 3.0625 C-7.1875 2.4025 -7.1875 1.7425 -7.1875 1.0625 C-4.43671116 0.14557039 -2.82801087 -0.04636083 0 0 Z " fill="#BDBCBB" transform="translate(530.1875,501.9375)"/>
<path d="M0 0 C3.63 0 7.26 0 11 0 C11 0.66 11 1.32 11 2 C9.68 2 8.36 2 7 2 C6.34 4.64 5.68 7.28 5 10 C4.01 10 3.02 10 2 10 C2.33 7.36 2.66 4.72 3 2 C2.01 2 1.02 2 0 2 C0 1.34 0 0.68 0 0 Z " fill="#C1C0BF" transform="translate(412,505)"/>
<path d="M0 0 C0 0.66 0 1.32 0 2 C-1.65 2 -3.3 2 -5 2 C-5.33 4.64 -5.66 7.28 -6 10 C-6.99 10 -7.98 10 -9 10 C-9 8.02 -9 6.04 -9 4 C-9.99 3.67 -10.98 3.34 -12 3 C-12 2.34 -12 1.68 -12 1 C-7.93631321 0.22596442 -4.13574827 -0.0984702 0 0 Z " fill="#BDBCBB" transform="translate(441,504)"/>
<path d="M0 0 C3.96 0 7.92 0 12 0 C11.67 0.66 11.34 1.32 11 2 C9.68 2 8.36 2 7 2 C7 3.98 7 5.96 7 8 C5.68 8.33 4.36 8.66 3 9 C3.33 6.69 3.66 4.38 4 2 C2.68 2 1.36 2 0 2 C0 1.34 0 0.68 0 0 Z " fill="#C0BFBE" transform="translate(467,504)"/>
<path d="M0 0 C0.66 0 1.32 0 2 0 C2 3.63 2 7.26 2 11 C1.34 11 0.68 11 0 11 C0 9.35 0 7.7 0 6 C-1.65 6 -3.3 6 -5 6 C-5 7.65 -5 9.3 -5 11 C-5.66 11 -6.32 11 -7 11 C-7 7.7 -7 4.4 -7 1 C-6.34 1 -5.68 1 -5 1 C-5 2.32 -5 3.64 -5 5 C-3.35 5 -1.7 5 0 5 C0 3.35 0 1.7 0 0 Z " fill="#8F8F8E" transform="translate(691,724)"/>
<path d="M0 0 C1.98 0.495 1.98 0.495 4 1 C4 2.32 4 3.64 4 5 C6.31 4.34 8.62 3.68 11 3 C11 3.66 11 4.32 11 5 C9.02 5.99 9.02 5.99 7 7 C7.33 7.66 7.66 8.32 8 9 C5.75 9.3125 5.75 9.3125 3 9 C0.625 6.75 0.625 6.75 -1 4 C-0.75 1.6875 -0.75 1.6875 0 0 Z " fill="#5D0A11" transform="translate(890,547)"/>
<path d="M0 0 C3.96 0 7.92 0 12 0 C11.67 0.66 11.34 1.32 11 2 C9.68 2 8.36 2 7 2 C6.67 4.64 6.34 7.28 6 10 C5.01 10 4.02 10 3 10 C2.875 4.25 2.875 4.25 4 2 C2.68 2 1.36 2 0 2 C0 1.34 0 0.68 0 0 Z " fill="#C2C1C1" transform="translate(485,503)"/>
<path d="M0 0 C1 3 1 3 -0.0390625 5.19921875 C-0.56242188 6.02035156 -1.08578125 6.84148438 -1.625 7.6875 C-2.17671875 8.56535156 -2.7284375 9.44320312 -3.296875 10.34765625 C-3.85890625 11.22292969 -4.4209375 12.09820313 -5 13 C-5.95963479 14.54085689 -6.91811436 16.08243436 -7.875 17.625 C-8.926875 19.295625 -8.926875 19.295625 -10 21 C-10.66 20.34 -11.32 19.68 -12 19 C-8.04 12.73 -4.08 6.46 0 0 Z " fill="#E91C28" transform="translate(925,541)"/>
<path d="M0 0 C2.64 0 5.28 0 8 0 C8 0.66 8 1.32 8 2 C6.02 2 4.04 2 2 2 C2 2.99 2 3.98 2 5 C3.65 5 5.3 5 7 5 C7 5.33 7 5.66 7 6 C5.35 6 3.7 6 2 6 C2 7.65 2 9.3 2 11 C1.34 11 0.68 11 0 11 C0 7.37 0 3.74 0 0 Z " fill="#969696" transform="translate(659,725)"/>
<path d="M0 0 C0.33 0.99 0.66 1.98 1 3 C1.66 3 2.32 3 3 3 C3 2.34 3 1.68 3 1 C4.32 1 5.64 1 7 1 C7 2.98 7 4.96 7 7 C6.01 7 5.02 7 4 7 C4 7.66 4 8.32 4 9 C4.99 9.33 5.98 9.66 7 10 C5.68 10 4.36 10 3 10 C2.87625 9.195625 2.7525 8.39125 2.625 7.5625 C2.315625 6.2940625 2.315625 6.2940625 2 5 C1.34 4.67 0.68 4.34 0 4 C0 2.68 0 1.36 0 0 Z " fill="#BC0D15" transform="translate(869,558)"/>
<path d="M0 0 C1.52106634 3.04213267 1.37429338 6.28047572 1.5625 9.625 C1.60568359 10.33140625 1.64886719 11.0378125 1.69335938 11.765625 C1.79944751 13.51018537 1.90022889 15.25506697 2 17 C1.34 17.33 0.68 17.66 0 18 C-0.12117187 17.00097656 -0.24234375 16.00195312 -0.3671875 14.97265625 C-0.53476562 13.68230469 -0.70234375 12.39195312 -0.875 11.0625 C-1.03742187 9.77472656 -1.19984375 8.48695313 -1.3671875 7.16015625 C-1.57601562 6.11730469 -1.78484375 5.07445312 -2 4 C-2.66 3.67 -3.32 3.34 -4 3 C-4 2.34 -4 1.68 -4 1 C-2 0 -2 0 0 0 Z " fill="#430C13" transform="translate(866,559)"/>
<path d="M0 0 C0.99 0.33 1.98 0.66 3 1 C3.02721176 2.89575251 3.04649136 4.79161979 3.0625 6.6875 C3.07410156 7.74324219 3.08570313 8.79898438 3.09765625 9.88671875 C3.00865425 12.72410262 2.64939838 15.2438919 2 18 C1.34 18 0.68 18 0 18 C0 12.06 0 6.12 0 0 Z " fill="#672129" transform="translate(919,561)"/>
<path d="M0 0 C2.475 0.99 2.475 0.99 5 2 C5 3.98 5 5.96 5 8 C3 8 1 8 -1 8 C-0.67 5.36 -0.34 2.72 0 0 Z " fill="#D82C33" transform="translate(923,572)"/>
<path d="M0 0 C1.98 0 3.96 0 6 0 C6.33 1.32 6.66 2.64 7 4 C3.3558226 6.4294516 1.28758728 6.16179575 -3 6 C-3.33 5.01 -3.66 4.02 -4 3 C-1.69 3 0.62 3 3 3 C2.01 2.01 1.02 1.02 0 0 Z " fill="#C4C3C3" transform="translate(458,508)"/>
<path d="M0 0 C0.66 0.33 1.32 0.66 2 1 C0.36307418 7.13847182 -1.78317598 13.04901126 -4 19 C-5.07174763 15.34811918 -4.76411467 12.73567172 -4 9 C-3.34 9 -2.68 9 -2 9 C-1.7834375 7.0509375 -1.7834375 7.0509375 -1.5625 5.0625 C-1.125 1.125 -1.125 1.125 0 0 Z " fill="#847E7E" transform="translate(836,532)"/>
<path d="M0 0 C2.31 0.33 4.62 0.66 7 1 C7.33 2.65 7.66 4.3 8 6 C4.21032475 5.45861782 2.48587161 3.84099612 0 1 C0 0.67 0 0.34 0 0 Z " fill="#6C302C" transform="translate(856,605)"/>
<path d="M0 0 C0.99 0.33 1.98 0.66 3 1 C3.33 2.65 3.66 4.3 4 6 C1.64561267 7.42944945 0.51967567 8.08661261 -2.25 7.625 C-2.8275 7.41875 -3.405 7.2125 -4 7 C-2.35 6.34 -0.7 5.68 1 5 C0.67 3.35 0.34 1.7 0 0 Z " fill="#3A0B13" transform="translate(900,547)"/>
<path d="M0 0 C2.64 0.33 5.28 0.66 8 1 C8.33 1.99 8.66 2.98 9 4 C6.69 4 4.38 4 2 4 C1.34 2.68 0.68 1.36 0 0 Z " fill="#B9B7B6" transform="translate(509,509)"/>
<path d="M0 0 C2.97 0 5.94 0 9 0 C9 0.66 9 1.32 9 2 C7.68 2 6.36 2 5 2 C5 4.64 5 7.28 5 10 C4.67 10 4.34 10 4 10 C4 7.36 4 4.72 4 2 C2.68 2 1.36 2 0 2 C0 1.34 0 0.68 0 0 Z " fill="#8B8B8B" transform="translate(694,724)"/>
<path d="M0 0 C2.97 0.33 5.94 0.66 9 1 C8.67 1.99 8.34 2.98 8 4 C5.36 3.67 2.72 3.34 0 3 C0 2.01 0 1.02 0 0 Z " fill="#660E0C" transform="translate(903,599)"/>
<path d="M0 0 C1.65 0.33 3.3 0.66 5 1 C5 1.99 5 2.98 5 4 C2.69 4.33 0.38 4.66 -2 5 C-1.34 3.35 -0.68 1.7 0 0 Z " fill="#4C2522" transform="translate(847,560)"/>
<path d="M0 0 C0.66 0.33 1.32 0.66 2 1 C1.50628906 1.43570313 1.01257813 1.87140625 0.50390625 2.3203125 C-3.73531982 6.21395104 -3.73531982 6.21395104 -5.9375 11.4375 C-5.958125 12.283125 -5.97875 13.12875 -6 14 C-6.33 14 -6.66 14 -7 14 C-8 10.9375 -8 10.9375 -8 7 C-5.65283752 4.23045521 -2.93858077 2.11552095 0 0 Z " fill="#873D39" transform="translate(847,549)"/>
<path d="M0 0 C0.66 0.66 1.32 1.32 2 2 C1.625 5.125 1.625 5.125 1 8 C-1.475 7.01 -1.475 7.01 -4 6 C-3.67 5.01 -3.34 4.02 -3 3 C-1.515 3.99 -1.515 3.99 0 5 C0 3.35 0 1.7 0 0 Z " fill="#651F26" transform="translate(928,575)"/>
<path d="M0 0 C0 0.66 0 1.32 0 2 C-1.65 2 -3.3 2 -5 2 C-5 2.66 -5 3.32 -5 4 C-5.66 4 -6.32 4 -7 4 C-7 3.34 -7 2.68 -7 2 C-8.32 1.67 -9.64 1.34 -11 1 C-7.26562152 0.12132271 -3.83225427 -0.08912219 0 0 Z " fill="#C4C3C3" transform="translate(441,504)"/>
<path d="M0 0 C6.76923077 3.44615385 6.76923077 3.44615385 7.9375 6.25 C7.958125 6.8275 7.97875 7.405 8 8 C4.27382578 6.75794193 2.60708543 4.8889325 0 2 C0 1.34 0 0.68 0 0 Z " fill="#7D7373" transform="translate(843,597)"/>
<path d="M0 0 C0 3.10551666 -0.5393715 4.35261084 -2 7 C-4.31 7 -6.62 7 -9 7 C-9 6.67 -9 6.34 -9 6 C-7.88625 5.9071875 -7.88625 5.9071875 -6.75 5.8125 C-3.1814261 4.75814862 -2.07754772 3.00090227 0 0 Z " fill="#EC1D29" transform="translate(906,573)"/>
<path d="M0 0 C0.33 0.99 0.66 1.98 1 3 C0.00390625 4.82421875 0.00390625 4.82421875 -1.4375 6.6875 C-1.91058594 7.31011719 -2.38367188 7.93273437 -2.87109375 8.57421875 C-3.24363281 9.04472656 -3.61617187 9.51523437 -4 10 C-4.66 9.34 -5.32 8.68 -6 8 C-4.02 5.36 -2.04 2.72 0 0 Z " fill="#EA1E2A" transform="translate(912,563)"/>
<path d="M0 0 C2.97 0.495 2.97 0.495 6 1 C6 1.99 6 2.98 6 4 C3.03 3.505 3.03 3.505 0 3 C0 2.01 0 1.02 0 0 Z " fill="#3F2421" transform="translate(849,553)"/>
<path d="M0 0 C3.63 0 7.26 0 11 0 C11 0.66 11 1.32 11 2 C6.58937864 3.0257259 4.07369424 3.03684712 0 1 C0 0.67 0 0.34 0 0 Z " fill="#C3C2C2" transform="translate(374,506)"/>
<path d="M0 0 C2.64 0 5.28 0 8 0 C8.33 0.99 8.66 1.98 9 3 C2.84765625 2.4140625 2.84765625 2.4140625 1 2 C0.67 1.34 0.34 0.68 0 0 Z " fill="#786D70" transform="translate(885,526)"/>
<path d="M0 0 C0.99 0 1.98 0 3 0 C2.67 2.64 2.34 5.28 2 8 C1.34 8 0.68 8 0 8 C0 5.36 0 2.72 0 0 Z " fill="#C5C4C3" transform="translate(527,504)"/>
<path d="M0 0 C0.99 0.33 1.98 0.66 3 1 C4.1875 4.0625 4.1875 4.0625 5 7 C3 7 3 7 1.375 5.75 C0 4 0 4 0 0 Z " fill="#6D696E" transform="translate(832,578)"/>
<path d="M0 0 C1.32 0.33 2.64 0.66 4 1 C3.67 2.65 3.34 4.3 3 6 C2.01 5.34 1.02 4.68 0 4 C0 2.68 0 1.36 0 0 Z " fill="#CC2A33" transform="translate(926,567)"/>
</svg>
